<svg xmlns="http://www.w3.org/2000/svg" width="222.793" height="53.668"><path fill="rgba(33,33,33,0.38)" d="M24.473 4.089H0V.634h24.473Zm22.976 47.1H43.1L23.725 2.995h4.463Zm23.84 1.641H46.816v-3.422h24.473Zm17.16.835h-4.2Q75.32 43.476 75.32 28.533q0-15 8.926-25.539h4.261a38.8 38.8 0 0 0-9.041 25.481 38.125 38.125 0 0 0 8.983 25.194Zm3.772-49.177 4-1.612q2.908 4.895 6.19 15.346l-4.405 1.526Q94.985 9.387 92.221 4.492Zm12.668-3.138L108.92 0a79.021 79.021 0 0 1 5.355 15.145l-4.375 1.468q-2.621-10.451-5.011-15.259Zm-4.894 42.155a40.686 40.686 0 0 0 11.69-7.112 34.458 34.458 0 0 0 7.486-8.983q4.837-8.7 6.075-26.057l4.722 1.008q-1.7 18.369-6.968 27.295-6.507 11.056-20.039 17.045Zm37.977 10.164h-4.2a38.125 38.125 0 0 0 8.983-25.193 38.8 38.8 0 0 0-9.045-25.481h4.261q8.983 10.538 8.983 25.539 0 14.942-8.983 25.135Zm37.372-.835H150.87v-3.426h24.473Zm23.407-49.839-19.809 48.14h-4.405l19.751-48.14Zm24.041 1.094h-24.473V.634h24.473Z"/></svg>