<svg xmlns="http://www.w3.org/2000/svg" xmlns:xlink="http://www.w3.org/1999/xlink" width="90.501" height="34" viewBox="0 0 90.501 34">
  <defs>
    <linearGradient id="linear-gradient" x1="0.856" y1="0.093" x2="0.055" y2="0.946" gradientUnits="objectBoundingBox">
      <stop offset="0" stop-color="#73eb7c"/>
      <stop offset="1" stop-color="#52a959"/>
    </linearGradient>
    <linearGradient id="linear-gradient-2" x1="0.955" y1="0.068" x2="0.033" y2="1.023" xlink:href="#linear-gradient"/>
    <linearGradient id="linear-gradient-3" x1="1" y1="0.407" x2="0" y2="0.592" gradientUnits="objectBoundingBox">
      <stop offset="0" stop-color="#52a959"/>
      <stop offset="0.306" stop-color="#73eb7c"/>
      <stop offset="0.526" stop-color="#62c76a"/>
      <stop offset="0.758" stop-color="#73eb7c"/>
      <stop offset="1" stop-color="#52a959"/>
    </linearGradient>
    <linearGradient id="linear-gradient-4" x1="1.073" y1="0.416" y2="0.736" xlink:href="#linear-gradient-3"/>
  </defs>
  <g id="Gruppe_1257" data-name="Gruppe 1257" transform="translate(-970.383 -621.42)">
    <g id="Gruppe_1261" data-name="Gruppe 1261" transform="translate(208.599 416.157)">
      <rect id="Rechteck_36" data-name="Rechteck 36" width="49" height="34" transform="translate(803.285 205.263)" fill="url(#linear-gradient)"/>
      <path id="Pfad_3254" data-name="Pfad 3254" d="M19.2,42.336H4.785V16.662H19.2v3.091H8.385v7.639H18.553v3.056H8.385v8.78H19.2Zm11.868.351a7.029,7.029,0,0,1-5.663-2.511q-2.116-2.511-2.116-7.446,0-4.987,2.151-7.542a7.1,7.1,0,0,1,5.716-2.555,7.728,7.728,0,0,1,2.617.4,6.412,6.412,0,0,1,3.3,2.581h.211q-.088-.544-.176-1.528t-.088-1.721V15.012h3.53V42.336H37.761l-.58-2.687h-.158a6.621,6.621,0,0,1-1.343,1.537,6.185,6.185,0,0,1-1.949,1.1A7.923,7.923,0,0,1,31.071,42.688Zm.825-2.88q2.862,0,4.048-1.651a8.461,8.461,0,0,0,1.2-4.9v-.544A10.255,10.255,0,0,0,36.014,27.4q-1.133-1.853-4.153-1.853a4.129,4.129,0,0,0-3.705,1.923,9.742,9.742,0,0,0-1.247,5.33,9.124,9.124,0,0,0,1.247,5.189A4.234,4.234,0,0,0,31.9,39.808Z" transform="translate(757 193.593)" fill="url(#linear-gradient-2)"/>
      <path id="Pfad_3255" data-name="Pfad 3255" d="M11.382,19.87H5.039V16.709H21.518V19.87H15.175V41.048h6.343v3.2H5.039v-3.2h6.343Zm35.968,10.3a22.793,22.793,0,0,1-.306,3.793,14.562,14.562,0,0,1-.98,3.372,11.377,11.377,0,0,1-1.749,2.834,9.929,9.929,0,0,1-2.634,2.181,13.4,13.4,0,0,1-3.625,1.4,20.23,20.23,0,0,1-4.7.5h-5.9V16.709h7.1q6.448,0,9.62,3.319T47.35,30.175Zm-3.941.274a19.211,19.211,0,0,0-.548-4.952A7.886,7.886,0,0,0,41.2,22.23a6.39,6.39,0,0,0-2.8-1.8,12.627,12.627,0,0,0-3.962-.558H31.208V41.006h2.8Q43.409,41.006,43.409,30.449Z" transform="translate(801.525 191.678)" fill="#212121"/>
    </g>
    <g id="Komponente_36_2" data-name="Komponente 36 – 2" transform="translate(970.383 621.42)">
      <g id="Gruppe_1262" data-name="Gruppe 1262" transform="translate(-761.785 -205.263)">
        <rect id="Rechteck_36-2" data-name="Rechteck 36" width="49" height="34" transform="translate(803.285 205.263)" fill="url(#linear-gradient-3)"/>
        <path id="Pfad_3254-2" data-name="Pfad 3254" d="M19.2,42.336H4.785V16.662H19.2v3.091H8.385v7.639H18.553v3.056H8.385v8.78H19.2Zm11.868.351a7.029,7.029,0,0,1-5.663-2.511q-2.116-2.511-2.116-7.446,0-4.987,2.151-7.542a7.1,7.1,0,0,1,5.716-2.555,7.728,7.728,0,0,1,2.617.4,6.412,6.412,0,0,1,3.3,2.581h.211q-.088-.544-.176-1.528t-.088-1.721V15.012h3.53V42.336H37.761l-.58-2.687h-.158a6.621,6.621,0,0,1-1.343,1.537,6.185,6.185,0,0,1-1.949,1.1A7.923,7.923,0,0,1,31.071,42.688Zm.825-2.88q2.862,0,4.048-1.651a8.461,8.461,0,0,0,1.2-4.9v-.544A10.255,10.255,0,0,0,36.014,27.4q-1.133-1.853-4.153-1.853a4.129,4.129,0,0,0-3.705,1.923,9.742,9.742,0,0,0-1.247,5.33,9.124,9.124,0,0,0,1.247,5.189A4.234,4.234,0,0,0,31.9,39.808Z" transform="translate(757 193.593)" fill="url(#linear-gradient-4)"/>
        <path id="Pfad_3255-2" data-name="Pfad 3255" d="M11.382,19.87H5.039V16.709H21.518V19.87H15.175V41.048h6.343v3.2H5.039v-3.2h6.343Zm35.968,10.3a22.793,22.793,0,0,1-.306,3.793,14.562,14.562,0,0,1-.98,3.372,11.377,11.377,0,0,1-1.749,2.834,9.929,9.929,0,0,1-2.634,2.181,13.4,13.4,0,0,1-3.625,1.4,20.23,20.23,0,0,1-4.7.5h-5.9V16.709h7.1q6.448,0,9.62,3.319T47.35,30.175Zm-3.941.274a19.211,19.211,0,0,0-.548-4.952A7.886,7.886,0,0,0,41.2,22.23a6.39,6.39,0,0,0-2.8-1.8,12.627,12.627,0,0,0-3.962-.558H31.208V41.006h2.8Q43.409,41.006,43.409,30.449Z" transform="translate(801.525 191.678)" fill="#212121"/>
      </g>
    </g>
  </g>
</svg>
