<svg xmlns="http://www.w3.org/2000/svg" width="222.793" height="53.668" viewBox="0 0 222.793 53.668">
  <path id="Path_3274"
        d="M24.473,11.069H0V7.614H24.473Zm22.976,47.1H43.1L23.725,9.975h4.463Zm23.84,1.641H46.816V56.388H71.289Zm17.16.835h-4.2Q75.32,50.456,75.32,35.513q0-15,8.926-25.539h4.261a38.8,38.8,0,0,0-9.041,25.481A38.125,38.125,0,0,0,88.449,60.649Zm3.772-49.177,4-1.612q2.908,4.895,6.19,15.346l-4.405,1.526Q94.985,16.367,92.221,11.472Zm12.668-3.138L108.92,6.98a79.021,79.021,0,0,1,5.355,15.145L109.9,23.593Q107.279,13.142,104.889,8.334ZM99.995,50.485a40.686,40.686,0,0,0,11.69-7.112,34.458,34.458,0,0,0,7.486-8.983q4.837-8.7,6.075-26.057l4.722,1.008q-1.7,18.369-6.968,27.295-6.507,11.056-20.039,17.045Zm37.977,10.164h-4.2a38.125,38.125,0,0,0,8.983-25.193A38.8,38.8,0,0,0,133.71,9.975h4.261q8.983,10.538,8.983,25.539Q146.954,50.456,137.971,60.649Zm37.372-.835H150.87V56.388h24.473ZM198.751,9.975l-19.809,48.14h-4.405l19.751-48.14Zm24.041,1.094H198.319V7.614h24.473Z"
        transform="translate(0 -6.98)" fill="rgba(33,33,33,0.38)"/>
</svg>
