<svg xmlns="http://www.w3.org/2000/svg" xmlns:xlink="http://www.w3.org/1999/xlink" width="90.501" height="34"><defs><linearGradient id="A" x1=".856" y1=".093" x2=".055" y2=".946"><stop offset="0" stop-color="#73eb7c"/><stop offset="1" stop-color="#52a959"/></linearGradient><linearGradient id="B" x1=".955" y1=".068" x2=".033" y2="1.023" xlink:href="#A"/><linearGradient id="C" x1="1" y1=".407" x2="0" y2=".592"><stop offset="0" stop-color="#52a959"/><stop offset=".306" stop-color="#73eb7c"/><stop offset=".526" stop-color="#62c76a"/><stop offset=".758" stop-color="#73eb7c"/><stop offset="1" stop-color="#52a959"/></linearGradient><linearGradient id="D" x1="1.073" y1=".416" y2=".736" xlink:href="#C"/></defs><path fill="url(#A)" d="M41.501 0h49v34h-49z"/><path d="M14.416 30.666H.001V4.992h14.415v3.091H3.601v7.639h10.168v3.056H3.601v8.78h10.815zm11.868.351a7.03 7.03 0 0 1-5.663-2.511q-2.116-2.511-2.116-7.446 0-4.987 2.151-7.542a7.1 7.1 0 0 1 5.716-2.555 7.73 7.73 0 0 1 2.617.4 6.41 6.41 0 0 1 3.3 2.581h.211q-.088-.544-.176-1.528-.088-.984-.088-1.721V3.342h3.53v27.324h-2.789l-.58-2.687h-.158a6.62 6.62 0 0 1-1.343 1.537c-.577.482-1.238.855-1.949 1.1-.857.285-1.757.421-2.66.402zm.825-2.88q2.862 0 4.048-1.651a8.46 8.46 0 0 0 1.2-4.9v-.544c.108-1.84-.281-3.675-1.127-5.312q-1.133-1.853-4.153-1.853a4.13 4.13 0 0 0-3.705 1.923 9.74 9.74 0 0 0-1.247 5.33c-.111 1.815.323 3.622 1.247 5.189.843 1.22 2.264 1.91 3.744 1.819z" fill="url(#B)"/><path d="M51.123 6.285H44.78V3.124h16.479v3.161h-6.343v21.178h6.343v3.2H44.78v-3.2h6.343zm35.968 10.3c.004 1.271-.098 2.539-.306 3.793a14.56 14.56 0 0 1-.98 3.372c-.441 1.025-1.03 1.98-1.749 2.834a9.93 9.93 0 0 1-2.634 2.181 13.4 13.4 0 0 1-3.625 1.4 20.23 20.23 0 0 1-4.7.5h-5.9V3.124h7.1q6.448 0 9.62 3.319 3.172 3.319 3.174 10.147zm-3.941.274a19.21 19.21 0 0 0-.548-4.952c-.29-1.203-.859-2.32-1.661-3.262a6.39 6.39 0 0 0-2.8-1.8c-1.283-.395-2.62-.584-3.962-.558h-3.23v21.134h2.8q9.401 0 9.401-10.557z" fill="#212121"/><path fill="url(#C)" d="M41.5 0h49v34h-49z"/><path d="M14.415 30.666H0V4.992h14.415v3.091H3.6v7.639h10.168v3.056H3.6v8.78h10.815zm11.868.351a7.03 7.03 0 0 1-5.663-2.511q-2.116-2.511-2.116-7.446 0-4.987 2.151-7.542a7.1 7.1 0 0 1 5.716-2.555 7.73 7.73 0 0 1 2.617.4 6.41 6.41 0 0 1 3.3 2.581h.211q-.088-.544-.176-1.528-.088-.984-.088-1.721V3.342h3.53v27.324h-2.789l-.58-2.687h-.158a6.62 6.62 0 0 1-1.343 1.537c-.577.482-1.238.855-1.949 1.1-.857.285-1.757.421-2.66.402zm.825-2.88q2.862 0 4.048-1.651a8.46 8.46 0 0 0 1.2-4.9v-.544c.108-1.84-.281-3.675-1.127-5.312q-1.133-1.853-4.153-1.853a4.13 4.13 0 0 0-3.705 1.923 9.74 9.74 0 0 0-1.247 5.33c-.111 1.815.323 3.622 1.247 5.189.843 1.22 2.264 1.91 3.744 1.819z" fill="url(#D)"/><path d="M51.122 6.285h-6.343V3.124h16.479v3.161h-6.343v21.178h6.343v3.2H44.779v-3.2h6.343zm35.968 10.3c.004 1.271-.098 2.539-.306 3.793a14.56 14.56 0 0 1-.98 3.372c-.441 1.025-1.03 1.98-1.749 2.834a9.93 9.93 0 0 1-2.634 2.181 13.4 13.4 0 0 1-3.625 1.4 20.23 20.23 0 0 1-4.7.5h-5.9V3.124h7.1q6.448 0 9.62 3.319 3.172 3.319 3.174 10.147zm-3.941.274a19.21 19.21 0 0 0-.548-4.952c-.29-1.203-.859-2.32-1.661-3.262a6.39 6.39 0 0 0-2.8-1.8c-1.283-.395-2.62-.584-3.962-.558h-3.23v21.134h2.8q9.401 0 9.401-10.557z" fill="#212121"/></svg>
