<svg xmlns="http://www.w3.org/2000/svg" width="90.5" height="33.999" fill="#fff"><path d="M90.5 33.999h-49v-34h49v34zM67.2 3.124v27.542h5.9a20.4 20.4 0 0 0 4.7-.5c1.269-.287 2.49-.759 3.622-1.4a9.99 9.99 0 0 0 2.637-2.18c.718-.854 1.307-1.809 1.749-2.834a14.63 14.63 0 0 0 .978-3.373 22.81 22.81 0 0 0 .3-3.791c0-4.535-1.065-7.949-3.168-10.146s-5.34-3.32-9.62-3.32zM44.784 27.462v3.2h16.479v-3.2h-6.344V6.283h6.344V3.124H44.784v3.159h6.344v21.179zm28.969-.04h-2.8V6.283h3.225a12.77 12.77 0 0 1 3.964.559 6.41 6.41 0 0 1 2.8 1.806 7.9 7.9 0 0 1 1.664 3.265 19.22 19.22 0 0 1 .547 4.952c0 3.5-.791 6.168-2.35 7.919s-3.935 2.638-7.054 2.638zm-59.338 3.244H0V4.992h14.415v3.091H3.6v7.639h10.168v3.056H3.6v8.78h10.815zm11.868.351a7.03 7.03 0 0 1-5.663-2.511q-2.116-2.511-2.116-7.446 0-4.987 2.151-7.542a7.1 7.1 0 0 1 5.716-2.555 7.73 7.73 0 0 1 2.617.4 6.41 6.41 0 0 1 3.3 2.581h.211q-.088-.544-.176-1.528-.088-.984-.088-1.721V3.342h3.53v27.324h-2.789l-.58-2.687h-.158a6.62 6.62 0 0 1-1.343 1.537c-.577.482-1.238.855-1.949 1.1-.857.285-1.757.421-2.66.402zm.825-2.88q2.862 0 4.048-1.651a8.46 8.46 0 0 0 1.2-4.9v-.544a10.26 10.26 0 0 0-1.127-5.312q-1.133-1.853-4.153-1.853a4.13 4.13 0 0 0-3.705 1.923 9.74 9.74 0 0 0-1.247 5.33 9.12 9.12 0 0 0 1.247 5.189c.843 1.22 2.264 1.91 3.744 1.819z"/></svg>
