<svg xmlns="http://www.w3.org/2000/svg" width="90.5" height="33.999" viewBox="0 0 90.5 33.999">
  <g id="Gruppe_1262" transform="translate(-761.785 -205.263)">
    <path id="Ausschluss_1" d="M16018.688,9545.425h-49v-34h49v34Zm-23.3-30.875v27.542h5.9a20.4,20.4,0,0,0,4.7-.5,13.306,13.306,0,0,0,3.622-1.4,9.993,9.993,0,0,0,2.637-2.18,11.444,11.444,0,0,0,1.749-2.834,14.632,14.632,0,0,0,.978-3.373,22.808,22.808,0,0,0,.3-3.791c0-4.535-1.065-7.949-3.168-10.146s-5.34-3.32-9.62-3.32Zm-22.416,24.338v3.2h16.479v-3.2h-6.344v-21.179h6.344v-3.159h-16.479v3.159h6.344v21.179Zm28.969-.04h-2.8v-21.139h3.225a12.771,12.771,0,0,1,3.964.559,6.408,6.408,0,0,1,2.8,1.806,7.9,7.9,0,0,1,1.664,3.265,19.222,19.222,0,0,1,.547,4.952c0,3.5-.791,6.168-2.35,7.919S16005.056,9538.848,16001.937,9538.848Z" transform="translate(-15166.403 -9306.163)" fill="#fff"/>
    <path id="Pfad_3254" d="M19.2,42.336H4.785V16.662H19.2v3.091H8.385v7.639H18.553v3.056H8.385v8.78H19.2Zm11.868.351a7.029,7.029,0,0,1-5.663-2.511q-2.116-2.511-2.116-7.446,0-4.987,2.151-7.542a7.1,7.1,0,0,1,5.716-2.555,7.728,7.728,0,0,1,2.617.4,6.412,6.412,0,0,1,3.3,2.581h.211q-.088-.544-.176-1.528t-.088-1.721V15.012h3.53V42.336H37.761l-.58-2.687h-.158a6.621,6.621,0,0,1-1.343,1.537,6.185,6.185,0,0,1-1.949,1.1A7.923,7.923,0,0,1,31.071,42.688Zm.825-2.88q2.862,0,4.048-1.651a8.461,8.461,0,0,0,1.2-4.9v-.544A10.255,10.255,0,0,0,36.014,27.4q-1.133-1.853-4.153-1.853a4.129,4.129,0,0,0-3.705,1.923,9.742,9.742,0,0,0-1.247,5.33,9.124,9.124,0,0,0,1.247,5.189A4.234,4.234,0,0,0,31.9,39.808Z" transform="translate(757 193.593)" fill="#fff"/>
  </g>
</svg>
